<svg width="88" height="426" viewBox="0 0 88 426" fill="none" xmlns="http://www.w3.org/2000/svg">
<path d="M67.2354 379.479L87.6984 368.748V415.818L67.2354 425.817L0 392.649V344.115L67.2354 379.479Z" fill="white"/>
<path d="M67.2354 293.28L87.6984 282.549V329.619L67.2354 339.618L0 306.449V257.916L67.2354 293.28Z" fill="white"/>
<path d="M67.2354 207.505L87.6984 196.873V243.511L67.2354 253.419L0 220.554V172.466L67.2354 207.505Z" fill="white"/>
<path d="M67.2354 122.38L87.6984 111.649V158.719L67.2354 168.719L0 135.55V87.0166L67.2354 122.38Z" fill="white"/>
<path d="M67.2354 36.1809L87.6984 25.4499V72.52L67.2354 82.5193L0 49.3508V0.817383L67.2354 36.1809Z" fill="white"/>
</svg>
