<svg width="88" height="594" viewBox="0 0 88 594" fill="none" xmlns="http://www.w3.org/2000/svg">
<path d="M20.463 378.789L0 368.058V415.128L20.463 425.128L87.6984 391.959V343.426L20.463 378.789Z" fill="white"/>
<path d="M20.463 292.59L0 281.859V328.929L20.463 338.929L87.6984 305.76V257.227L20.463 292.59Z" fill="white"/>
<path d="M20.463 206.816L0 196.183V242.822L20.463 252.729L87.6984 219.865V171.777L20.463 206.816Z" fill="white"/>
<path d="M20.463 121.691L0 110.96V158.03L20.463 168.029L87.6984 134.861V86.3271L20.463 121.691Z" fill="white"/>
<path d="M20.463 35.4915L0 24.7605V71.8305L20.463 81.8299L87.6984 48.6613V0.12793L20.463 35.4915Z" fill="white"/>
<path d="M20.463 546.691L0 535.96V583.03L20.463 593.029L87.6984 559.861V511.327L20.463 546.691Z" fill="white"/>
<path d="M20.463 460.491L0 449.76V496.831L20.463 506.83L87.6984 473.661V425.128L20.463 460.491Z" fill="white"/>
</svg>
