<svg width="88" height="594" viewBox="0 0 88 594" fill="none" xmlns="http://www.w3.org/2000/svg">
<path d="M67.2354 378.789L87.6984 368.058V415.128L67.2354 425.128L0 391.959V343.426L67.2354 378.789Z" fill="white"/>
<path d="M67.2354 292.59L87.6984 281.859V328.929L67.2354 338.929L0 305.76V257.227L67.2354 292.59Z" fill="white"/>
<path d="M67.2354 206.816L87.6984 196.183V242.822L67.2354 252.729L0 219.865V171.777L67.2354 206.816Z" fill="white"/>
<path d="M67.2354 121.691L87.6984 110.96V158.03L67.2354 168.029L0 134.861V86.3271L67.2354 121.691Z" fill="white"/>
<path d="M67.2354 35.4915L87.6984 24.7605V71.8305L67.2354 81.8299L0 48.6613V0.12793L67.2354 35.4915Z" fill="white"/>
<path d="M67.2354 546.691L87.6984 535.96V583.03L67.2354 593.029L0 559.861V511.327L67.2354 546.691Z" fill="white"/>
<path d="M67.2354 460.491L87.6984 449.76V496.831L67.2354 506.83L0 473.661V425.128L67.2354 460.491Z" fill="white"/>
</svg>
