<svg width="88" height="426" viewBox="0 0 88 426" fill="none" xmlns="http://www.w3.org/2000/svg">
<path d="M20.7646 379.281L0.301636 368.55V415.62L20.7646 425.619L88 392.45V343.917L20.7646 379.281Z" fill="white"/>
<path d="M20.7646 293.081L0.301636 282.35V329.42L20.7646 339.42L88 306.251V257.718L20.7646 293.081Z" fill="white"/>
<path d="M20.7646 207.307L0.301636 196.674V243.313L20.7646 253.22L88 220.356V172.268L20.7646 207.307Z" fill="white"/>
<path d="M20.7646 122.182L0.301636 111.451V158.521L20.7646 168.52L88 135.352V86.8182L20.7646 122.182Z" fill="white"/>
<path d="M20.7646 35.9824L0.301636 25.2514V72.3215L20.7646 82.3208L88 49.1523V0.618896L20.7646 35.9824Z" fill="white"/>
</svg>
