<?xml version="1.0" encoding="utf-8"?>
<!-- Generator: Adobe Illustrator 24.1.2, SVG Export Plug-In . SVG Version: 6.00 Build 0)  -->
<svg version="1.1" id="Шар_1" xmlns="http://www.w3.org/2000/svg" xmlns:xlink="http://www.w3.org/1999/xlink" x="0px" y="0px"
	 viewBox="0 0 351.7 143.6" style="enable-background:new 0 0 351.7 143.6;" xml:space="preserve">
<style type="text/css">
	.st0{fill:#FFFFFF;}
</style>
<path class="st0" d="M65.6,11.9h-62v118.3h62h3c32.6,0,59.2-26.5,59.2-59.2c0-32.6-26.5-59.2-59.2-59.2H65.6"/>
<g>
	<path d="M68.6,133.2h-3v-3h3c32.6,0,59.2-26.5,59.2-59.2c0-32.6-26.5-59.2-59.2-59.2h-3V8.7h3c34.2,0,62.2,28,62.2,62.4
		C130.8,105.4,102.8,133.2,68.6,133.2z M65.6,133.2H0.5V8.7h65.1v3.2h-62v118.3h62V133.2z"/>
	<polygon class="st0" points="151.7,26.7 154.5,26.7 161.3,36 165.5,36 157.3,25 164.7,14.9 160.5,14.9 154.5,23.5 151.7,23.5 
		151.7,14.9 148.4,14.9 148.4,36 151.7,36 	"/>
	<path class="st0" d="M179.1,22.7c-1.4,0-2.9,0.2-4.2,0.3v2.9c1.4-0.3,2.9-0.3,4.3-0.3h0.8v0.6c0,3.2-1.9,6.6-5.1,7.2v2.9
		c2.1-0.3,4-1.6,5.1-3.4c0,0.2,0,0.2,0,0.3V36h3.4V22.6c0-5.3-2.7-8.2-7.8-8.2c-0.3,0-0.5,0-0.6,0v3.2c0.2,0,0.3,0,0.5,0
		c3,0,4.6,1.6,4.6,5v0.2H179.1z M174.9,23.1c-5.6,0.6-8.5,3-8.5,7c0,4.2,3.7,6.4,7.2,6.4c0.5,0,0.8-0.2,1.3-0.2v-2.9
		c-0.3,0-0.5,0-0.8,0c-2.7,0-4.2-1.8-4.2-3.5c0-2.6,2.2-3.7,5-4V23.1L174.9,23.1z M174.9,14.4c-2.6,0.2-5.3,1.1-6.9,2.4l-0.2,0.2
		l1.6,2.7l0.3-0.2c1.4-1.1,3.4-1.8,5.1-1.9V14.4z"/>
	<path class="st0" d="M205.6,35.7c4.3-1.6,7.2-5.4,7.2-10.4c0-4.8-2.9-8.5-7.2-10.1v3.5c2.2,1.3,3.7,3.5,3.7,6.6
		c0,3.2-1.4,5.6-3.7,6.9V35.7z M198.4,36.3V44h3.4v-7.7c1.4,0,2.6-0.3,3.8-0.6v-3.5c-1.1,0.6-2.4,1-3.8,1.1V17.6
		c1.4,0.2,2.7,0.5,3.8,1.1v-3.5c-1.3-0.3-2.4-0.6-3.8-0.6V7.1h-3.4v7.5c-1.3,0-2.6,0.3-3.7,0.6v3.5c1.1-0.6,2.2-1,3.7-1.1v15.7
		c-1.4-0.2-2.6-0.5-3.7-1.1v3.5C195.9,36,197.1,36.3,198.4,36.3z M194.8,15.2c-4.5,1.6-7.2,5.3-7.2,10.1c0,5,2.7,8.8,7.2,10.4v-3.5
		c-2.4-1.3-3.7-3.7-3.7-6.9c0-3,1.3-5.3,3.7-6.6V15.2z"/>
	<path class="st0" d="M226.9,36.5c2.9,0,5.9-1.1,7.8-3l0.2-0.2l-1.6-2.7l-0.3,0.3c-1.6,1.4-3.8,2.4-5.9,2.4c-0.5,0-1-0.2-1.3-0.2
		v3.2C226.1,36.5,226.6,36.5,226.9,36.5L226.9,36.5z M225.8,25.9h9.3v-0.3c0.2-0.5,0.2-1,0.2-1.4c0-4.8-2.7-9.8-8.8-9.8
		c-0.3,0-0.5,0-0.6,0v3c0.2,0,0.3,0,0.5,0c2.4,0,5.1,1.4,5.4,5.6h-5.9V25.9z M225.8,33.1c-3.2-0.5-5.9-2.7-6.2-7.2h6.2v-2.9h-6.1
		c0.6-3.2,3-5.4,6.1-5.6v-3c-5.8,0.3-9.8,4.8-9.8,11c0,5.9,4,10.4,9.8,10.9V33.1z"/>
	<path class="st0" d="M248.6,36h7.7v4.8h3.4V33h-2.9V14.9h-8.2v3h4.6v15h-4.6V36z M240.8,36h7.8v-3h-4.8c2.6-4.2,3-9.9,3-14.1v-1
		h1.8v-3h-5.1v3.7c0,6.6-1.1,11.4-3.4,14.4h-2.7v7.8h3.4V36z"/>
	<path class="st0" d="M273.3,36.5h0.2c5.6,0,9.4-4.6,9.4-11c0-6.7-3.7-11-9.3-11c0,0-0.2,0-0.3,0v3.2l0,0c3.7,0,6.1,3.2,6.1,7.8
		s-2.6,7.8-6.1,7.8V36.5z M267.2,33.8c0-0.2-0.2-0.3-0.2-0.5c1.4,1.9,3.7,3,6.2,3.2v-3.2h-0.2c-4,0-6.1-3.8-6.1-7.8
		c0-5.8,3.2-7.7,6.2-7.8v-3.2c-2.7,0.2-5,1.3-6.2,3.2v-0.2v-2.6h-3.4V44h3.5V33.8z"/>
	<path class="st0" d="M298.4,22.7c-1.4,0-2.9,0.2-4.2,0.3v2.9c1.3-0.3,2.9-0.3,4.2-0.3h1v0.6c0,3.2-1.9,6.6-5.1,7.2v2.9
		c2.1-0.3,4-1.6,5.1-3.4c0,0.2,0,0.2,0,0.3V36h3.4V22.6c0-5.3-2.9-8.2-8-8.2c-0.2,0-0.3,0-0.5,0v3.2c0.2,0,0.3,0,0.3,0
		c3.2,0,4.8,1.6,4.8,5v0.2H298.4z M294.2,23.1c-5.6,0.6-8.5,3-8.5,7c0,4.2,3.5,6.4,7.2,6.4c0.5,0,0.8-0.2,1.3-0.2v-2.9
		c-0.3,0-0.5,0-0.8,0c-2.7,0-4.2-1.8-4.2-3.5c0-2.6,2.2-3.7,5-4V23.1L294.2,23.1z M294.2,14.4c-2.6,0.2-5.3,1.1-6.9,2.4l-0.2,0.2
		l1.6,2.7l0.3-0.2c1.4-1.1,3.4-1.8,5.1-1.9V14.4z"/>
	<polygon class="st0" points="151.7,63 161.2,63 161.2,60 148.4,60 148.4,80.9 151.7,80.9 	"/>
	<path class="st0" d="M174.3,81.4c5.4,0,9.4-4.5,9.4-11c0-6.6-3.7-10.9-9.3-10.9c-0.2,0-0.3,0-0.5,0v3.2h0.2c3.5,0,6.1,3,6.1,7.8
		c0,4.5-2.6,7.7-6.2,7.7v3.2H174.3z M174,59.5c-2.6,0.2-4.8,1.3-6.2,3.2c0-0.2,0-0.2,0-0.3V60h-3.2v29.1h3.4V78.9c0-0.2,0-0.3,0-0.5
		c1.4,1.9,3.7,3,6.1,3v-3.2l0,0c-4,0-6.1-3.8-6.1-7.7c0-5.8,3.2-7.8,6.1-7.8V59.5z"/>
	<path class="st0" d="M195.1,81.3c2.1-0.3,4-1.4,5.1-3.4c0,0.2,0,0.3,0,0.3v2.7h3.4V67.7c0-5.3-2.9-8.2-8-8.2c-0.2,0-0.3,0-0.5,0
		v3.2c0,0,0.2,0,0.3,0c3.2,0,4.6,1.6,4.6,4.8v0.3h-0.8c-1.6,0-2.9,0-4.2,0.2v2.9c1.3-0.2,2.7-0.2,4.2-0.2h0.8v0.5
		c0,3.2-1.9,6.7-5,7.2V81.3z M193.6,81.4c0.5,0,1,0,1.4-0.2v-2.9c-0.3,0-0.6,0-0.8,0c-2.9,0-4.3-1.8-4.3-3.5c0-2.6,2.2-3.5,5.1-4V68
		c-5.8,0.8-8.6,3.2-8.6,7.2C186.4,79.3,190.1,81.4,193.6,81.4L193.6,81.4z M195.1,59.5c-2.7,0.2-5.3,1-6.9,2.4l-0.3,0.2l1.6,2.7
		l0.3-0.3c1.6-1.1,3.4-1.8,5.3-1.8V59.5z"/>
	<path class="st0" d="M225.6,80.6c4.5-1.6,7.2-5.3,7.2-10.2c0-4.8-2.7-8.6-7.2-10.1v3.4c2.4,1.3,3.7,3.7,3.7,6.7
		c0,3-1.3,5.4-3.7,6.7V80.6z M221.9,59.5V52h-3.4v7.5c-1.4,0.2-2.6,0.3-3.7,0.8v3.4c1-0.5,2.2-1,3.7-1v15.5c-1.4,0-2.7-0.5-3.7-1.1
		v3.5c1.1,0.5,2.2,0.6,3.7,0.8v7.7h3.4v-7.7c1.3-0.2,2.6-0.3,3.7-0.8v-3.5c-1,0.6-2.2,1.1-3.7,1.1V62.7c1.4,0,2.7,0.5,3.7,1v-3.4
		C224.5,59.8,223.2,59.7,221.9,59.5z M214.9,60.3c-4.5,1.4-7.4,5.3-7.4,10.1c0,5,2.9,8.6,7.4,10.2v-3.5c-2.4-1.3-3.8-3.7-3.8-6.7
		c0-3,1.4-5.4,3.8-6.7V60.3z"/>
	<rect x="236.6" y="60" class="st0" width="3.5" height="20.9"/>
	<rect x="236.6" y="51.8" class="st0" width="3.7" height="4.2"/>
	<path class="st0" d="M256.6,80.9h3.4V60h-3.4v9c-1,0.6-2.7,1.4-4.6,1.4c-3.8,0-4.3-1.9-4.3-3.8V60h-3.4v6.7c0,4.5,2.4,6.9,7.2,6.9
		c1.6,0,3.7-0.6,5.1-1.4c0,0.3,0,0.5,0,0.8V80.9z"/>
	<polygon class="st0" points="283.8,80.9 283.8,60 280.3,60 280.3,68.6 269.1,68.6 269.1,60 265.7,60 265.7,80.9 269.1,80.9 
		269.1,71.8 280.3,71.8 280.3,80.9 	"/>
	<path class="st0" d="M299.2,81.4c6.2,0,11-4.8,11-11c0-6.1-4.8-10.9-11-10.9v3.2c4.3,0,7.5,3.4,7.5,7.7c0,4.5-3.2,7.8-7.5,7.8V81.4
		z M299.2,59.5c-6.2,0-11,4.8-11,10.9c0,6.2,4.8,11,11,11l0,0v-3.2l0,0c-4.3,0-7.5-3.4-7.5-7.8c0-4.3,3.4-7.7,7.5-7.7l0,0V59.5
		L299.2,59.5z"/>
	<polygon class="st0" points="314.5,80.9 318,80.9 318,63 327.5,63 327.5,60 314.5,60 	"/>
	<path class="st0" d="M339.8,81.4c6.2,0,11-4.8,11-11c0-6.1-4.8-10.9-11-10.9v3.2c4.2,0,7.5,3.4,7.5,7.7c0,4.3-3.4,7.8-7.5,7.8V81.4
		z M339.8,59.5c-6.2,0-11,4.8-11,10.9c0,6.2,4.8,11,11,11l0,0v-3.2l0,0c-4.3,0-7.5-3.4-7.5-7.8c0-4.3,3.2-7.7,7.5-7.7l0,0V59.5
		L339.8,59.5z"/>
	<path class="st0" d="M163.9,104.9h-8.2v3h4.8v15h-4.8v3h7.7v4.8h3.4V123h-2.9V104.9z M155.7,104.9h-5.1v3.7
		c0,6.6-1.1,11.4-3.4,14.4h-2.7v7.8h3.4V126h7.8v-3h-4.6c2.4-4.2,3-9.9,3-14.1v-1h1.6V104.9z"/>
	<path class="st0" d="M175.2,118.3c-0.3,0.6-1,1.4-1.4,2.2c0-1,0.2-1.9,0.2-1.9v-13.7h-3.4V126h3l10.1-13.6c0.3-0.5,0.8-1,1.1-1.4
		c0.2-0.3,0.3-0.5,0.3-0.5c0,0.5,0,1.1,0,1.8V126h3.4v-21.1h-3.2L175.2,118.3z"/>
	<path class="st0" d="M204,114.8c1.3-0.6,2.6-2.1,2.6-4.6c0-3.5-2.7-5.8-6.9-5.8c-3.5,0-5.8,1.4-6.9,2.4l-0.2,0.2l1.4,2.6l0.3-0.3
		c1.6-1.1,3-1.8,4.8-1.8c1.4,0,3.8,0.5,3.8,3.2c0,2.4-2.2,3-4.2,3h-2.6v2.9h2.9c2.1,0,4.6,0.5,4.6,3.2c0,2.6-2.4,3.7-4.6,3.7
		c-2.6,0-4.3-1.6-5.1-2.4l-0.3-0.3l-1.9,2.4l0.3,0.3c1.4,1.3,3.8,3,7.2,3c3.8,0,8-2.1,8-6.6C207.4,117.5,206.1,115.8,204,114.8z"/>
	<path class="st0" d="M219.4,104.4c-0.2,0-0.5,0-0.6,0v3.2c0.2,0,0.3,0,0.5,0c3,0,4.6,1.6,4.6,5v0.2h-1c-1.4,0-2.9,0-4.2,0.3v2.9
		c1.4-0.3,2.9-0.3,4.3-0.3h0.8v0.6c0,3.2-1.9,6.6-5.1,7v3c2.1-0.3,4-1.6,5.3-3.4v0.2v2.9h3.2v-13.4
		C227.2,107.3,224.5,104.4,219.4,104.4z M218.7,104.4c-2.6,0.2-5.3,1.1-6.9,2.4l-0.2,0.2l1.6,2.7l0.3-0.2c1.6-1.1,3.4-1.8,5.1-1.9
		V104.4L218.7,104.4z M218.7,113.1c-5.6,0.6-8.5,3-8.5,7c0,4.2,3.7,6.4,7.2,6.4c0.5,0,1-0.2,1.3-0.2v-3c-0.2,0.2-0.5,0.2-0.8,0.2
		c-2.7,0-4.2-1.8-4.2-3.5c0-2.6,2.2-3.7,5-4V113.1z"/>
	<path class="st0" d="M237.6,118.3c-0.5,0.6-1,1.4-1.4,2.2c0-1,0-1.9,0-1.9v-13.7h-3.4V126h3.2l10.1-13.6c0.3-0.5,0.6-1,1-1.4
		c0.2-0.3,0.3-0.5,0.5-0.5c-0.2,0.5-0.2,1.1-0.2,1.8V126h3.5v-21.1h-3.2L237.6,118.3z"/>
	<path class="st0" d="M241.8,103c2.9,0,5.8-1.8,5.8-5.1v-1h-3v0.8c0,1.8-1.4,2.6-2.7,2.6s-2.6-0.8-2.6-2.4v-1h-3v1
		C236.2,101.2,238.9,103,241.8,103z"/>
	<polygon class="st0" points="271,113.7 260,113.7 260,104.9 256.5,104.9 256.5,126 260,126 260,116.8 271,116.8 271,126 274.5,126 
		274.5,104.9 271,104.9 	"/>
	<path class="st0" d="M288.4,119.9c-0.2,0.5-0.3,1-0.5,1.3c-0.2-0.3-0.3-0.8-0.5-1.3l-6.1-15h-3.7l8.5,20.5l-1.1,2.7
		c-0.5,1.3-1.6,3.2-3.5,3.2c-1.1,0-2.2-0.8-2.2-1l-0.3-0.2l-1.3,2.7l0.2,0.2c0,0.2,1.6,1.4,3.8,1.4c2.7,0,5-1.8,6.1-4.5l10.2-25.1
		h-3.7L288.4,119.9z"/>
	<path d="M67.5,61.6v-1.4l1.4,1.4h-0.2H67.5L67.5,61.6z M67.5,54.2l7.4,7.4h6.9l-9.6-9.4l3.5-3.7l9.6,9.6v-6.9l-9.4-9.4l-8.3,8.2
		V54.2L67.5,54.2z M67.5,44v-6.9l8.2-8l0,0l0,0l9.6,9.4v6.7l-9.6-9.4L67.5,44L67.5,44z M67.5,31.2l2.1-2.1h-2.1V31.2z M67.5,29.1
		v2.1L54.7,44v-6.7l8.2-8.2H67.5L67.5,29.1z M67.5,37.1L54.7,49.9v4.3l7.4,7.4h0.2h5.3v-1.4l-8-8l8-8.2V37.1L67.5,37.1z M67.5,49.9
		v4.3l-2.1-2.1L67.5,49.9L67.5,49.9z M54.7,112.8v-1.1l1.3,1.1H54.7L54.7,112.8z M54.7,105.1v-6.7l4.5,4.3v6.7L54.7,105.1
		L54.7,105.1z M54.7,92.4v-6.9l4.5,4.5v6.7L54.7,92.4L54.7,92.4z M54.7,79.7v-6.7l4.5,4.3V84L54.7,79.7L54.7,79.7z M54.7,67v-6.9
		l4.5,4.5v6.7L54.7,67L54.7,67z M54.7,31.2l2.2-2.1h-2.2V31.2z M54.7,29.1v2.1l-5.3,5.3v-6.7l0.8-0.6H54.7L54.7,29.1z M54.7,37.3V44
		l-5.3,5.3v-6.7L54.7,37.3L54.7,37.3z M54.7,49.9v4.3l-1.9-2.1h-0.2l0,0L54.7,49.9L54.7,49.9z M54.7,60.2V67l-5.1-5.1v-0.2l-0.2,0.2
		v-6.7l0.3-0.2L54.7,60.2L54.7,60.2z M54.7,72.9v6.7l-5.1-5.1l-0.2,0.2V68l0.2-0.2L54.7,72.9L54.7,72.9z M54.7,85.6v6.9l-5.1-5.1
		v-0.2l-0.2,0.3v-6.7l0.2-0.3l0,0l0,0h0.2v0.2L54.7,85.6L54.7,85.6z M54.7,98.4v6.7l-5.1-5.1l0,0l-0.2,0.2v-6.7l0.2-0.2L54.7,98.4
		L54.7,98.4z M54.7,111.6v1.1h-5.3v-6.4L54.7,111.6z M29,29.1h2.6L29,31.7V29.1L29,29.1z M49.4,29.8L29,50.4v6.7l20.5-20.6V29.8
		L49.4,29.8z M49.4,42.6v6.7L29,69.7V63L49.4,42.6L49.4,42.6z M49.4,55.2v6.7L29,82.5v-6.7L49.4,55.2L49.4,55.2z M49.4,68L29,88.5
		v6.7l20.5-20.5V68L49.4,68z M49.4,80.8L29,101.1v4l7.7,7.7h6.7l-9.6-9.6l15.7-15.7V80.8L49.4,80.8z M49.4,93.4v6.7l-3,3l0,0l3,3.2
		v6.4h-0.2l-9.4-9.6L49.4,93.4L49.4,93.4z M29,44.3l15.2-15.2h-6.7L29,37.6V44.3z M26.4,29.1H29v2.6l-2.6,2.6V29.1L26.4,29.1z
		 M29,37.6v6.7l-2.6,2.6v-6.7L29,37.6L29,37.6z M29,50.4v6.7l-2.6,2.6V53L29,50.4L29,50.4z M29,63v6.7l-2.6,2.6v-6.7L29,63L29,63z
		 M29,75.8v6.7l-2.6,2.6v-6.7L29,75.8L29,75.8z M29,88.5v6.7l-2.6,2.6V91L29,88.5L29,88.5z M29,101.1v4l-2.1-1.9L29,101.1z"/>
</g>
</svg>
